<svg xmlns="http://www.w3.org/2000/svg" viewBox="0 0 1000 1000">
    <defs>
      <radialGradient id="bg"><stop offset="0" stop-color="#242424"/><stop offset=".55" stop-color="#0d0d0d"/><stop offset="1" stop-color="#050505"/></radialGradient>
      <linearGradient id="metal" x1="0" y1="0" x2="1" y2="1"><stop offset="0" stop-color="#f2f2f2"/><stop offset=".23" stop-color="#858585"/><stop offset=".5" stop-color="#d9d9d9"/><stop offset=".76" stop-color="#575757"/><stop offset="1" stop-color="#c7c7c7"/></linearGradient>
      <radialGradient id="rim"><stop offset=".55" stop-color="#555"/><stop offset=".7" stop-color="#e6e6e6"/><stop offset=".82" stop-color="#6c6c6c"/><stop offset="1" stop-color="#171717"/></radialGradient>
      <filter id="shadow"><feDropShadow dx="0" dy="22" stdDeviation="24" flood-color="#000" flood-opacity=".7"/></filter>
      <filter id="glow"><feGaussianBlur stdDeviation="18"/></filter>
    </defs>
    <rect width="1000" height="1000" fill="url(#bg)"/>
    <circle cx="500" cy="500" r="405" fill="none" stroke="#d8ff3e" stroke-opacity=".15" stroke-width="5" filter="url(#glow)"/>
    <g filter="url(#shadow)">
      <circle cx="500" cy="500" r="390" fill="#090909" stroke="#252525" stroke-width="52"/>
      <circle cx="500" cy="500" r="335" fill="url(#rim)"/>
      <circle cx="500" cy="500" r="310" fill="#090909"/>
      <polygon points="619.1,511.7 825.3,527.0 823.9,507.0 616.3,471.8" fill="url(#metal)" stroke="#565656" stroke-width="2"/><polygon points="593.9,574.3 797.1,629.1 806.7,611.5 613.1,539.2" fill="url(#metal)" stroke="#565656" stroke-width="2"/><polygon points="538.8,613.2 610.6,807.1 628.1,797.5 574.0,594.1" fill="url(#metal)" stroke="#565656" stroke-width="2"/><polygon points="471.4,616.2 506.0,823.9 526.0,825.3 511.3,619.1" fill="url(#metal)" stroke="#565656" stroke-width="2"/><polygon points="413.1,582.3 266.6,728.1 282.6,740.1 445.1,606.4" fill="url(#metal)" stroke="#565656" stroke-width="2"/><polygon points="382.4,522.3 207.9,640.0 214.8,658.8 396.3,559.8" fill="url(#metal)" stroke="#565656" stroke-width="2"/><polygon points="389.0,455.2 195.5,382.5 191.2,402.0 380.5,494.3" fill="url(#metal)" stroke="#565656" stroke-width="2"/><polygon points="430.9,402.3 251.3,292.4 237.1,306.6 402.5,430.5" fill="url(#metal)" stroke="#565656" stroke-width="2"/><polygon points="494.6,380.4 480.4,174.2 460.9,178.4 455.6,388.9" fill="url(#metal)" stroke="#565656" stroke-width="2"/><polygon points="560.1,396.5 585.5,187.5 566.8,180.5 522.7,382.5" fill="url(#metal)" stroke="#565656" stroke-width="2"/><polygon points="606.5,445.5 788.2,346.9 776.2,330.8 582.6,413.4" fill="url(#metal)" stroke="#565656" stroke-width="2"/>
      <circle cx="500" cy="500" r="112" fill="url(#metal)" stroke="#555" stroke-width="3"/>
      <circle cx="568.0" cy="500.0" r="14" fill="#050505" stroke="#777" stroke-width="4"/><circle cx="521.0" cy="564.7" r="14" fill="#050505" stroke="#777" stroke-width="4"/><circle cx="445.0" cy="540.0" r="14" fill="#050505" stroke="#777" stroke-width="4"/><circle cx="445.0" cy="460.0" r="14" fill="#050505" stroke="#777" stroke-width="4"/><circle cx="521.0" cy="435.3" r="14" fill="#050505" stroke="#777" stroke-width="4"/>
      <circle cx="500" cy="500" r="40" fill="#0a0a0a" stroke="#d8ff3e" stroke-width="4"/>
      <text x="500" y="508" text-anchor="middle" font-family="Arial" font-size="20" font-weight="700" fill="#eee">F</text>
    </g>
    <text x="48" y="938" font-family="Arial" font-size="20" letter-spacing="5" fill="#777">F05 RACING LINE</text>
    </svg>