<svg xmlns="http://www.w3.org/2000/svg" viewBox="0 0 1600 900"><defs><linearGradient id="g" x1="0" x2="1"><stop stop-color="#080808"/><stop offset="1" stop-color="#161616"/></linearGradient></defs><rect width="1600" height="900" fill="url(#g)"/><path d="M250 600 C360 510 490 450 680 430 L900 425 C1040 430 1135 470 1260 555 L1380 590 L1380 650 L1260 665 C1215 760 1080 770 1015 675 L555 675 C495 770 360 758 315 665 L220 650 Z" fill="#2a2a2a" stroke="#494949" stroke-width="5"/><path d="M560 470 L725 355 L920 355 L1080 475 Z" fill="#1a1a1a" stroke="#555" stroke-width="4"/><circle cx="435" cy="665" r="92" fill="#080808" stroke="#d8ff3e" stroke-width="8"/><circle cx="435" cy="665" r="55" fill="#555"/><circle cx="1135" cy="665" r="92" fill="#080808" stroke="#d8ff3e" stroke-width="8"/><circle cx="1135" cy="665" r="55" fill="#555"/><text x="90" y="110" fill="#d8ff3e" font-family="Arial" font-size="34" letter-spacing="8">FITMENT PROJECT</text></svg>